<svg width="48" height="48" viewBox="0 0 48 48" fill="none" xmlns="http://www.w3.org/2000/svg">
<g clip-path="url(#clip0_1_11)">
<path d="M23.9744 3L5.93169 13.441V34.3229L23.9744 44.7639L42.0172 34.3229V13.441L23.9744 3ZM23.7913 3.54953C22.6006 16.2802 16.739 26.3548 6.29804 33.865C10.0531 20.31 13.9914 13.441 23.7913 3.54953ZM6.48122 34.1398C18.1128 28.8277 29.836 28.8277 41.4676 34.1398C28.0043 37.7117 20.0362 37.7117 6.48122 34.1398ZM24.1576 3.54953C33.9575 13.5326 37.9873 20.31 41.6508 33.865C31.2098 26.4464 25.4398 16.2802 24.1576 3.54953Z" fill="#222D33"/>
</g>
<defs>
<clipPath id="clip0_1_11">
<rect width="41.7763" height="41.7763" fill="white" transform="translate(3.22363 3)"/>
</clipPath>
</defs>
</svg>
